<?xml version="1.0" encoding="utf-8"?>
<!-- Generator: Adobe Illustrator 24.0.3, SVG Export Plug-In . SVG Version: 6.00 Build 0)  -->
<svg version="1.1" id="Layer_1" xmlns="http://www.w3.org/2000/svg" xmlns:xlink="http://www.w3.org/1999/xlink" x="0px" y="0px"
	 viewBox="0 0 299 78" style="enable-background:new 0 0 299 78;" xml:space="preserve">
<style type="text/css">
	.st0{fill:#FFFFFF;}
	.st1{fill:url(#SVGID_1_);}
	.st2{fill:url(#SVGID_2_);}
	.st3{fill:url(#SVGID_3_);}
	.st4{fill:url(#SVGID_4_);}
	.st5{fill:url(#SVGID_5_);}
	.st6{fill:url(#SVGID_6_);}
	.st7{fill:url(#SVGID_7_);}
	.st8{fill:url(#SVGID_8_);}
	.st9{fill:url(#SVGID_9_);}
	.st10{fill:url(#SVGID_10_);}
	.st11{fill:url(#SVGID_11_);}
	.st12{fill:url(#SVGID_12_);}
	.st13{opacity:0.57;fill:url(#SVGID_13_);}
	.st14{opacity:0.57;fill:url(#SVGID_14_);}
	.st15{fill:url(#SVGID_15_);}
	.st16{fill:url(#SVGID_16_);}
	.st17{fill:url(#SVGID_17_);}
	.st18{fill:url(#SVGID_18_);}
	.st19{fill:url(#SVGID_19_);}
	.st20{opacity:0.57;fill:url(#SVGID_20_);}
	.st21{fill:url(#SVGID_21_);}
	.st22{opacity:0.57;fill:url(#SVGID_22_);}
	.st23{fill:url(#SVGID_23_);}
</style>
<g>
	<path class="st0" d="M285.5,12.7v2.9h-4.2v11.9h-2.9V15.5h-4.2v-2.9H285.5z"/>
	<path class="st0" d="M290.6,27.4l-6.3-14.8h3.1l3.2,7.5l3.2-7.5h3.1L290.6,27.4z"/>
</g>
<g>
	<g>
		<linearGradient id="SVGID_1_" gradientUnits="userSpaceOnUse" x1="121.6795" y1="57.0909" x2="181.5084" y2="22.5487">
			<stop  offset="0" style="stop-color:#E18226"/>
			<stop  offset="0.2418" style="stop-color:#EF9529"/>
			<stop  offset="0.3177" style="stop-color:#F0992D"/>
			<stop  offset="0.3919" style="stop-color:#F2A439"/>
			<stop  offset="0.4653" style="stop-color:#F6B84C"/>
			<stop  offset="0.538" style="stop-color:#FCD368"/>
			<stop  offset="0.5757" style="stop-color:#FFE479"/>
			<stop  offset="0.6747" style="stop-color:#FDDB5A"/>
			<stop  offset="0.8084" style="stop-color:#FACC2A"/>
			<stop  offset="1" style="stop-color:#FDDF00"/>
		</linearGradient>
		<path class="st1" d="M151.6,5.3c-19.1,0-34.5,15.5-34.5,34.5s15.5,34.5,34.5,34.5s34.5-15.5,34.5-34.5S170.7,5.3,151.6,5.3z
			 M151.6,57.4c-9.7,0-17.6-7.9-17.6-17.6c0-9.7,7.9-17.6,17.6-17.6s17.6,7.9,17.6,17.6C169.2,49.5,161.3,57.4,151.6,57.4z"/>
	</g>
	<g>
		<linearGradient id="SVGID_2_" gradientUnits="userSpaceOnUse" x1="156.1148" y1="39.1308" x2="156.7386" y2="39.1308">
			<stop  offset="0" style="stop-color:#E08026"/>
			<stop  offset="1" style="stop-color:#FFD435"/>
		</linearGradient>
		<path class="st2" d="M156.3,39c0.1-0.1,0.3-0.1,0.4,0c0,0,0.1,0.1,0.1,0.1c0,0.1,0,0.2-0.1,0.2c-0.1,0-0.2,0-0.3,0
			c-0.1,0-0.1,0-0.2,0c0,0,0-0.2,0-0.2C156.2,39,156.2,39,156.3,39z"/>
		<linearGradient id="SVGID_3_" gradientUnits="userSpaceOnUse" x1="154.8524" y1="38.2948" x2="155.4964" y2="38.2948">
			<stop  offset="0" style="stop-color:#E08026"/>
			<stop  offset="1" style="stop-color:#FFD435"/>
		</linearGradient>
		<path class="st3" d="M154.9,38.1c0,0,0,0.2,0,0.2c0,0,0.1,0.1,0,0.2c0.2,0,0.3,0,0.4,0.1c0,0,0,0,0,0c0,0,0.1-0.2,0.1-0.2
			c0,0,0,0,0-0.1c-0.1,0-0.3-0.2-0.3-0.2L154.9,38.1z"/>
		<linearGradient id="SVGID_4_" gradientUnits="userSpaceOnUse" x1="154.631" y1="38.3015" x2="155.6873" y2="38.3015">
			<stop  offset="0" style="stop-color:#E08026"/>
			<stop  offset="1" style="stop-color:#FFD435"/>
		</linearGradient>
		<path class="st4" d="M154.9,37.9l0.2,0c0.4,0,0.2,0.1,0.4,0.2c0,0,0.1,0.1,0.2,0.1c0,0,0,0.1,0,0.2c-0.1,0.4-0.4,0.4-0.4,0.3
			c-0.1-0.1-0.1-0.1-0.3-0.1c-0.1,0-0.3,0-0.3-0.1c0-0.1,0-0.1,0.1-0.1c-0.1-0.1,0-0.2,0-0.3C154.7,37.9,154.8,37.9,154.9,37.9z"/>
		<linearGradient id="SVGID_5_" gradientUnits="userSpaceOnUse" x1="153.0575" y1="38.364" x2="153.5883" y2="38.364">
			<stop  offset="0" style="stop-color:#E08026"/>
			<stop  offset="1" style="stop-color:#FFD435"/>
		</linearGradient>
		<path class="st5" d="M153.1,38.2L153.1,38.2c0.1,0.1,0,0.2,0.2,0.3c0.2,0.1,0.3,0,0.3,0c0,0,0-0.1,0-0.1
			C153.3,38.3,153.3,38.4,153.1,38.2z"/>
		<linearGradient id="SVGID_6_" gradientUnits="userSpaceOnUse" x1="152.927" y1="38.1284" x2="153.014" y2="38.1284">
			<stop  offset="0" style="stop-color:#E08026"/>
			<stop  offset="1" style="stop-color:#FFD435"/>
		</linearGradient>
		<path class="st6" d="M152.9,38.1L152.9,38.1C153,38.1,153,38.1,152.9,38.1C153,38.1,153,38.1,152.9,38.1z"/>
		<linearGradient id="SVGID_7_" gradientUnits="userSpaceOnUse" x1="152.1909" y1="37.9175" x2="152.6043" y2="37.9175">
			<stop  offset="0" style="stop-color:#E08026"/>
			<stop  offset="1" style="stop-color:#FFD435"/>
		</linearGradient>
		<path class="st7" d="M152.2,37.9c0.1,0,0.2,0.1,0.3,0.1c0,0,0.1-0.1,0.1-0.1C152.4,37.8,152.4,37.9,152.2,37.9z"/>
		<linearGradient id="SVGID_8_" gradientUnits="userSpaceOnUse" x1="151.9352" y1="38.025" x2="152.1764" y2="38.025">
			<stop  offset="0" style="stop-color:#E08026"/>
			<stop  offset="1" style="stop-color:#FFD435"/>
		</linearGradient>
		<path class="st8" d="M151.9,38.1L151.9,38.1c0.1,0.1,0-0.2,0.2-0.2C152,37.9,151.9,38,151.9,38.1z"/>
		<linearGradient id="SVGID_9_" gradientUnits="userSpaceOnUse" x1="151.7976" y1="38.1911" x2="153.7905" y2="38.1911">
			<stop  offset="0" style="stop-color:#E08026"/>
			<stop  offset="1" style="stop-color:#FFD435"/>
		</linearGradient>
		<path class="st9" d="M151.8,37.9c0.1-0.2,0.5-0.2,0.8-0.2c0.4,0.2,0.6,0.4,0.7,0.4c0.1,0,0.4-0.1,0.5,0.1c0,0.1,0,0.2,0,0.3
			c0.1,0-0.3,0.2-0.5,0.1c-0.1,0-0.2-0.1-0.3-0.2c0,0-0.1-0.2-0.1-0.2c0,0,0,0,0,0c-0.1,0-0.1-0.1-0.1-0.2c-0.2-0.1-0.1,0.1-0.3,0
			c0,0-0.2-0.1-0.2-0.1c0,0.1,0,0.2-0.2,0.3c-0.2,0.1-0.3,0-0.2,0c0,0,0-0.1,0-0.1C151.8,38.1,151.7,38,151.8,37.9z"/>
		<linearGradient id="SVGID_10_" gradientUnits="userSpaceOnUse" x1="137.0572" y1="40.545" x2="153.9424" y2="40.545">
			<stop  offset="0" style="stop-color:#E08026"/>
			<stop  offset="1" style="stop-color:#FFD435"/>
		</linearGradient>
		<path class="st10" d="M148.2,53.8c-0.3-0.1,0.2-0.1,0.3-0.1l0.5,0c0.9,0,1.5,0.1,2.4,0.1c0.5,0,0.9-0.1,1.4-0.2
			c0,0-0.3-1.5-0.2-1.8c0.1-0.4,0.3-0.9,0.5-1.3c0.2-0.5,0.5-1.3,0.7-1.8c0.1-0.3,0.3-1.2,0-1.4c-0.2-0.1-0.6-0.4-0.8-0.5
			c-0.2-0.2-0.3-0.3-0.3-0.5c-0.1-0.2-0.3-0.8-0.5-1c-0.1-0.2-0.4-0.4-0.6-0.6c-0.1-0.1,0-0.3,0-0.3c0.1-0.3,0.1-1,0.3-1.3
			c0-0.1,0.6-0.5,0.6-0.5c0,0,0,0,0-0.1c0-0.1-0.1-0.9-0.1-0.9c0-0.1-0.1-0.2-0.1-0.2c0-0.1-0.3,0-0.3,0c-0.2,0-0.3,0.1-0.6,0
			c-0.2-0.1-0.5-0.2-0.7-0.4l-0.4-0.2c-0.1-0.1-0.1-0.1-0.1-0.2c-0.1-0.2-0.1-0.3-0.3-0.5c-0.2-0.1-0.4-0.2-0.7-0.2
			c-0.4-0.1-0.4-0.1-0.6-0.4c-0.3-0.3-0.6,0-1.1-0.2c-0.1,0-0.2-0.1-0.3-0.2c-0.3-0.1-0.5-0.3-0.8-0.5c-0.4-0.3-0.5-0.5-0.6-1
			c-0.1-0.4-0.2-0.6-0.4-1c-0.1-0.3-0.1-0.3-0.3-0.6c0.2,0.4,0.2,0.6,0.3,1c0,0.3,0,0.3-0.2,0.1c-0.4-0.3-0.5-0.5-0.7-0.9
			c-0.2-0.5-0.1-0.3-0.2-0.8c-0.1-0.4-0.2-0.6-0.3-0.9c-0.2-0.5-0.3-1.3-0.2-1.9c0.2-0.5,0.7-1.1,0.8-1.7c0.1-0.3,0.3-1.5,0.4-1.7
			c0-0.3,0-0.6-0.4-0.5l-0.3,0.1c-0.3,0.1-0.9,0.2-1.1,0c-0.2-0.2-0.1-0.4,0-0.4c0.1-0.2,0.5-0.2,0.7-0.4c0.2-0.2,0.3-0.4,0.6-0.5
			c-0.2,0.1-0.5,0.3-0.7,0.1c-0.9,0.6-1.7,1.2-2.5,2c-5.7,5.7-5.7,14.9,0,20.6C143.3,51.9,145.7,53.2,148.2,53.8z"/>
		<linearGradient id="SVGID_11_" gradientUnits="userSpaceOnUse" x1="146.8275" y1="39.8198" x2="166.1307" y2="39.8198">
			<stop  offset="0" style="stop-color:#E08026"/>
			<stop  offset="1" style="stop-color:#FFD435"/>
		</linearGradient>
		<path class="st11" d="M164.1,32.2c0.4,0.8,0.8,1.6,1,2.4c1,3,0.4,8.7,0.4,7.4c0,0-0.2-0.3-0.2-0.7c0-1.2,0.4-1.3-0.4-1.9
			c-0.3-0.2-0.5-0.6-0.8-0.9c-0.2-0.2-0.2-0.3-0.2-0.5c0-0.1-0.2-1.5-0.3-1.5c-0.3-0.7-0.3-0.9-0.4-1.7c-0.1-1-0.3-1.1-0.6-2
			c-0.1-0.3-0.2-0.4-0.4-0.6c-0.3-0.3-0.5-0.7-0.8-1c-0.2-0.2-0.2-0.3-0.2-0.5c0-0.4,0-0.3-0.3-0.6c-0.4-0.3-0.4-0.4-0.8-0.5
			c-0.5-0.1-0.5-0.3-0.9-0.6c-0.1-0.1-0.3-0.2-0.3-0.4c-0.1-0.2-0.1-0.3-0.3-0.5c-0.3-0.3-0.8-0.7-1.1-0.9l-1.5-0.8
			c-0.1-0.1-0.2-0.2-0.4-0.2c-0.2-0.1-0.6-0.2-0.8-0.2c-0.4,0-0.6,0.2-0.8,0c0,0-0.1-0.2-0.2-0.2c-0.2-0.1-0.6-0.1-0.9-0.1
			c-0.4-0.1-0.9-0.1-1.4-0.1c-0.4,0-1.2,0-1.5,0c-0.4,0.1-1.9,0.5-2.4,0.6c-0.2,0.1-0.6,0.2-0.6,0.3c0,0,0.1,0.2,0.2,0.2
			c0.1,0.1,0.2,0.2,0.3,0.3c0.1,0.1,0.5,0.1,0.7,0.1c0.2,0,0.2,0,0.3-0.1c0.1-0.1,0.8-0.6,0.9-0.5c0.4-0.2,0.6-0.2,0.9,0
			c0.1,0.1,0.4,0.2,0.5,0.1c0.2-0.1,0.3-0.4,0.7-0.5c0.1,0,0.9,0,0.9,0c0.4-0.1,0.7-0.2,1.2-0.1c0.3,0.1,1.2,0.3,1.4,0.5
			c0.1,0.1,0.1,0.1,0.1,0.2c0,0.1,0,0.1,0.1,0.1c0.2,0,0.3,0,0.4,0.2c0.3,0.4,0,0.9,0.4,1.6c0.1,0.1,0.2,0.3,0,0.4
			c-0.2,0.1-0.5,0-0.7-0.1c-0.8-0.3-1.7-1.2-2.4-1.8c-0.2-0.2-0.3-0.2-0.5-0.2c-0.3,0-0.4,0-0.7-0.1c0.1,0.3,1,0.8,1.4,1.1
			c0.2,0.2,0.3,0.5,0.3,0.8c0,0,0,0.2,0,0.2c0,0-0.2,0.3-0.1,0.4c0.1,0.1,0.4-0.1,0.6,0c0.3,0.1,0.5,0.5,0.9,0.7
			c0,0,0.5,0.3,0.5,0.3c0,0,0.3,0.3,0.3,0.3c0,0,0.3,0.2,0.3,0.2c0.3,0.1,0.6,0.1,0.6,0.6c0,0.4-0.1,0.7-0.5,0.7
			c-0.4,0-0.7-0.1-0.8-0.5c-0.1-0.2,0-0.4-0.3-0.3c-0.6,0.2,0.1,0.4,0.2,0.6c0.1,0.1,0,0.4,0,0.6c0,0.2,0,0.4-0.2,0.4
			c-0.2,0.1-0.6-0.4-0.9-0.2c-0.1,0.1-0.1,0.2-0.2,0.3l0,0c-0.2,0.4-0.3,0.3-0.5,0.6c-0.4,0.5-0.2,0.9-0.5,1.3
			c-0.2,0.3-0.6,0.4-0.8,0.5c-0.2,0.2,0,1.3-0.2,1.5l0,0c-0.1,0.1-0.3,0-0.4-0.1c-0.2-0.3-0.2-0.6-0.7-0.6c-0.4,0-0.8,0-1.2,0.1
			c-0.3,0-1-0.1-1.2,0.1c-0.1,0.1-0.2,0.3-0.2,0.5c-0.1,0.4-0.1,0.8,0,1.1c0.1,0.3,0.3,0.4,0.6,0.4c0.3,0,0.6-0.1,0.8-0.3
			c0.1-0.2,0.1-0.3,0.4-0.4c0.2-0.1,0.4,0,0.4,0.3l-0.1,0.5c0,0.4-0.1,0.5-0.3,0.8c0.2,0.1,0.8,0,1,0.1c0.3,0.1,0.1,0.3,0.1,0.6
			c0,0.2,0,0.5,0.1,0.7c0,0.2,0.6,0.2,0.8,0.3c0.2,0,0.6,0.1,0.8,0c0.2,0,0.2-0.5,0.8-0.6c0.1,0,1.1,0.1,1.1,0.1
			c0.2,0.1,0.6,0.2,0.8,0.1c0.4-0.1,0.5-0.3,0.9,0c0,0,0.2,0.1,0.2,0.1l0.5,0.5c0.4,0.3,0.4,0.3,0.9,0.4l0.4,0c0.1,0,0.2,0,0.3,0.1
			c0.2,0.3,0.3,0.7,0.8,0.9c0.2,0.1,0.5,0.1,0.7,0.2c0.1,0.1,0.1,0.2,0.2,0.2c0,0,0.3,0,0.4,0.1c0.2,0.1,0.4,0.2,0.6,0.3
			c0.3,0.1,0.4,0.2,0.5,0.6c0.1,0.5-0.2,0.9-0.4,1.3c-0.3,0.4-0.4,0.7-0.5,1.1c-0.2,0.8,0,1.1-1,1.6c-0.8,0.4-1.2,0.4-1.7,1.3
			c-0.3,0.5-0.4,1.1-1,1.4c-0.3,0.1-0.8,0.1-1,0.2c-0.1,0.1-0.1,0.4-0.3,0.5c-0.1,0.1-0.5,0.2-0.7,0.2c-0.4,0.1-0.3,0.1-0.4,0.3
			c0,0-0.2,0.2-0.2,0.2c-0.5,0.4-0.5,0.5-0.8,1c-0.2,0.3-0.2,0.4,0.2,0.5c0.4,0.1,0.8,0,1.3,0c0.1,0,0.4-0.1,0.5,0
			c0,0.1-0.4,0.2-0.6,0.3c-0.9,0.3-1.6,0.5-2.4,0.6c3.3-0.3,6.4-1.7,8.9-4.2C166.7,45.1,167.4,37.7,164.1,32.2z"/>
	</g>
	<linearGradient id="SVGID_12_" gradientUnits="userSpaceOnUse" x1="210.904" y1="64.6443" x2="219.0552" y2="18.4165">
		<stop  offset="0" style="stop-color:#E08026"/>
		<stop  offset="0.1593" style="stop-color:#E18326"/>
		<stop  offset="0.2867" style="stop-color:#E48D24"/>
		<stop  offset="0.4027" style="stop-color:#E99E22"/>
		<stop  offset="0.454" style="stop-color:#ECA820"/>
		<stop  offset="0.5861" style="stop-color:#EEB01C"/>
		<stop  offset="0.7862" style="stop-color:#F4C410"/>
		<stop  offset="1" style="stop-color:#FDE200"/>
	</linearGradient>
	<polygon class="st12" points="197.4,14.6 232.9,60 232.9,66.3 220.4,66.3 197.9,37.4 	"/>
	<linearGradient id="SVGID_13_" gradientUnits="userSpaceOnUse" x1="240.8896" y1="71.277" x2="266.1422" y2="50.0875">
		<stop  offset="0" style="stop-color:#E08026"/>
		<stop  offset="0.1593" style="stop-color:#E18326"/>
		<stop  offset="0.2867" style="stop-color:#E48D24"/>
		<stop  offset="0.4027" style="stop-color:#E99E22"/>
		<stop  offset="0.454" style="stop-color:#ECA820"/>
		<stop  offset="0.5861" style="stop-color:#EEB01C"/>
		<stop  offset="0.7862" style="stop-color:#F4C410"/>
		<stop  offset="1" style="stop-color:#FDE200"/>
	</linearGradient>
	<polygon class="st13" points="236.7,59.6 251.4,44.1 251.4,53.2 268.7,53.2 268.7,66.3 236.7,66.3 	"/>
	<linearGradient id="SVGID_14_" gradientUnits="userSpaceOnUse" x1="71.6776" y1="56.212" x2="84.7946" y2="56.212">
		<stop  offset="0" style="stop-color:#FFD435"/>
		<stop  offset="0.37" style="stop-color:#F5B830"/>
		<stop  offset="1" style="stop-color:#E08026"/>
	</linearGradient>
	<polygon class="st14" points="78,46.3 71.7,63 72.9,66.1 83.2,66.1 84.8,61.9 	"/>
	<linearGradient id="SVGID_15_" gradientUnits="userSpaceOnUse" x1="1.6853" y1="39.6337" x2="38.594" y2="39.6337">
		<stop  offset="0" style="stop-color:#E08026"/>
		<stop  offset="0.1901" style="stop-color:#E08026"/>
		<stop  offset="0.3992" style="stop-color:#E18327"/>
		<stop  offset="0.5665" style="stop-color:#E58D28"/>
		<stop  offset="0.7193" style="stop-color:#EB9E2B"/>
		<stop  offset="0.8625" style="stop-color:#F4B630"/>
		<stop  offset="1" style="stop-color:#FFD435"/>
	</linearGradient>
	<polygon class="st15" points="1.7,66.1 23.7,13.1 38.6,13.1 26.2,46.3 	"/>
	<linearGradient id="SVGID_16_" gradientUnits="userSpaceOnUse" x1="51.5316" y1="42.2457" x2="107.0107" y2="37.3919">
		<stop  offset="0.3333" style="stop-color:#EF9529"/>
		<stop  offset="0.8084" style="stop-color:#FACC2A"/>
		<stop  offset="1" style="stop-color:#FDDF00"/>
	</linearGradient>
	<polygon class="st16" points="102.7,13.1 90.8,13.1 78,46.3 65.2,13.1 53.2,13.1 50.7,33 60.9,57.4 63,40.1 72.9,66.1 83.2,66.1 
		93,40.1 96.2,66.1 109.5,66.1 	"/>
	<g>
		<linearGradient id="SVGID_17_" gradientUnits="userSpaceOnUse" x1="1.6853" y1="39.6337" x2="60.5597" y2="39.6337">
			<stop  offset="0" style="stop-color:#E08026"/>
			<stop  offset="0.1922" style="stop-color:#E18327"/>
			<stop  offset="0.346" style="stop-color:#E58D28"/>
			<stop  offset="0.4865" style="stop-color:#EB9E2B"/>
			<stop  offset="0.6182" style="stop-color:#F4B630"/>
			<stop  offset="0.7446" style="stop-color:#FFD435"/>
			<stop  offset="1" style="stop-color:#FFD435"/>
		</linearGradient>
		<polygon class="st17" points="38.6,13.1 23.7,13.1 1.7,66.1 17.9,66.1 22.1,56.3 36.4,56.3 31.5,44.5 26.9,44.5 31.1,31.4 
			35.4,44.5 40.1,56.3 44.3,66.1 60.6,66.1 		"/>
	</g>
	<linearGradient id="SVGID_18_" gradientUnits="userSpaceOnUse" x1="247.7268" y1="68.2593" x2="257.7174" y2="11.5997">
		<stop  offset="0" style="stop-color:#E08026"/>
		<stop  offset="0.1593" style="stop-color:#E18326"/>
		<stop  offset="0.2867" style="stop-color:#E48D24"/>
		<stop  offset="0.4027" style="stop-color:#E99E22"/>
		<stop  offset="0.454" style="stop-color:#ECA820"/>
		<stop  offset="0.5861" style="stop-color:#EEB01C"/>
		<stop  offset="0.7862" style="stop-color:#F4C410"/>
		<stop  offset="1" style="stop-color:#FDE200"/>
	</linearGradient>
	<path class="st18" d="M268.7,26.7V13.5h-32v21.1c2.1,0.8,3.7,2.8,3.7,5.2c0,2.4-1.5,4.4-3.7,5.2v21.3h32V53.2h-17.3v-9.1h15.1V32.4
		h-15.1v-5.7H268.7z"/>
	<linearGradient id="SVGID_19_" gradientUnits="userSpaceOnUse" x1="178.5047" y1="50.8514" x2="238.5199" y2="29.0076">
		<stop  offset="0" style="stop-color:#E08026"/>
		<stop  offset="0.1593" style="stop-color:#E18326"/>
		<stop  offset="0.2867" style="stop-color:#E48D24"/>
		<stop  offset="0.4027" style="stop-color:#E99E22"/>
		<stop  offset="0.454" style="stop-color:#ECA820"/>
		<stop  offset="0.5861" style="stop-color:#EEB01C"/>
		<stop  offset="0.7862" style="stop-color:#F4C410"/>
		<stop  offset="1" style="stop-color:#FDE200"/>
	</linearGradient>
	<path class="st19" d="M229.4,39.8c0-2.3,1.4-4.3,3.5-5.1V13.5h-13.8v28.9l-22.5-28.9h-12.5v6.8c3.4,5.7,5.4,12.4,5.4,19.6
		s-2,13.9-5.4,19.6v6.8h13.8V37.4l22.5,28.9h12.5V44.9C230.8,44.1,229.4,42.1,229.4,39.8z"/>
	<linearGradient id="SVGID_20_" gradientUnits="userSpaceOnUse" x1="240.8896" y1="71.277" x2="266.1422" y2="50.0875">
		<stop  offset="0" style="stop-color:#E08026"/>
		<stop  offset="0.1593" style="stop-color:#E18326"/>
		<stop  offset="0.2867" style="stop-color:#E48D24"/>
		<stop  offset="0.4027" style="stop-color:#E99E22"/>
		<stop  offset="0.454" style="stop-color:#ECA820"/>
		<stop  offset="0.5861" style="stop-color:#EEB01C"/>
		<stop  offset="0.7862" style="stop-color:#F4C410"/>
		<stop  offset="1" style="stop-color:#FDE200"/>
	</linearGradient>
	<polygon class="st20" points="236.7,59.6 251.4,44.1 251.4,53.2 268.7,53.2 268.7,66.3 236.7,66.3 	"/>
	<linearGradient id="SVGID_21_" gradientUnits="userSpaceOnUse" x1="210.904" y1="64.7261" x2="219.0552" y2="18.4982">
		<stop  offset="0" style="stop-color:#E08026"/>
		<stop  offset="0.1593" style="stop-color:#E18326"/>
		<stop  offset="0.2867" style="stop-color:#E48D24"/>
		<stop  offset="0.4027" style="stop-color:#E99E22"/>
		<stop  offset="0.454" style="stop-color:#ECA820"/>
		<stop  offset="0.5861" style="stop-color:#EEB01C"/>
		<stop  offset="0.7862" style="stop-color:#F4C410"/>
		<stop  offset="1" style="stop-color:#FDE200"/>
	</linearGradient>
	<polygon class="st21" points="197.4,14.7 232.9,60.1 232.9,66.4 220.4,66.4 197.9,37.5 	"/>
	<linearGradient id="SVGID_22_" gradientUnits="userSpaceOnUse" x1="71.6776" y1="56.212" x2="84.7946" y2="56.212">
		<stop  offset="0" style="stop-color:#FFD435"/>
		<stop  offset="0.37" style="stop-color:#F5B830"/>
		<stop  offset="1" style="stop-color:#E08026"/>
	</linearGradient>
	<polygon class="st22" points="78,46.3 71.7,63 72.9,66.1 83.2,66.1 84.8,61.9 	"/>
	<linearGradient id="SVGID_23_" gradientUnits="userSpaceOnUse" x1="1.6853" y1="39.6337" x2="38.594" y2="39.6337">
		<stop  offset="0" style="stop-color:#E08026"/>
		<stop  offset="0.1901" style="stop-color:#E08026"/>
		<stop  offset="0.3992" style="stop-color:#E18327"/>
		<stop  offset="0.5665" style="stop-color:#E58D28"/>
		<stop  offset="0.7193" style="stop-color:#EB9E2B"/>
		<stop  offset="0.8625" style="stop-color:#F4B630"/>
		<stop  offset="1" style="stop-color:#FFD435"/>
	</linearGradient>
	<polygon class="st23" points="1.7,66.1 23.7,13.1 38.6,13.1 26.2,46.3 	"/>
</g>
</svg>
